<svg width="230" height="204" viewBox="0 0 230 204" fill="none" xmlns="http://www.w3.org/2000/svg">
<path d="M6 5.5L36 17.5L40.4945 38.5M200 153H65L59.2214 126M40.4945 38.5H224.5L206.5 126H59.2214M40.4945 38.5L59.2214 126" stroke="black" stroke-width="10" stroke-linecap="round" stroke-linejoin="round"/>
<path d="M98 64H217.5L210 101H89" stroke="black" stroke-width="10" stroke-linecap="round" stroke-linejoin="round"/>
<path d="M167 126L177 40" stroke="black" stroke-width="10" stroke-linecap="round" stroke-linejoin="round"/>
<path d="M129 126L128 54" stroke="black" stroke-width="10" stroke-linecap="round" stroke-linejoin="round"/>
<path d="M189 184C189 192.169 182.178 199 173.5 199C164.822 199 158 192.169 158 184C158 175.831 164.822 169 173.5 169C182.178 169 189 175.831 189 184Z" stroke="black" stroke-width="10"/>
<path d="M117 184C117 192.169 110.178 199 101.5 199C92.8225 199 86 192.169 86 184C86 175.831 92.8225 169 101.5 169C110.178 169 117 175.831 117 184Z" stroke="black" stroke-width="10"/>
</svg>
