<?xml version="1.0" encoding="utf-8"?><svg xmlns="http://www.w3.org/2000/svg" xmlns:xlink="http://www.w3.org/1999/xlink" width="1489" height="768" preserveAspectRatio="xMidYMid" viewBox="0 0 1489 768" style="z-index:1;margin-right:-2px;display:block;background-repeat-y:initial;background-repeat-x:initial;background-color:rgb(241, 242, 243);animation-play-state:paused" ><g transform="" style="animation-play-state:paused" ><linearGradient id="lg-0.13809371087108047" x1="0" x2="1" y1="0" y2="0" style="animation-play-state:paused" ><stop stop-color="#51cacc" offset="0" style="animation-play-state:paused" ></stop>

  
<stop stop-color="#9df871" offset="1" style="animation-play-state:paused" ></stop></linearGradient>
<path d="M 1347.8 384 C 1347.8 565.4 1048.2 732.2 875.8 788.4 C 703.4 844.6 372 878 265.6 731.6 C 159.2 585.2 160.6 183.8 267 37.4 C 373.4 -109 737.4 -181.2 909.8 -125 C 1082.2 -68.8 1347.8 202.6 1347.8 384" fill="url(#lg-0.13809371087108047)" opacity="0.4" style="opacity:0.4;animation-play-state:paused" ></path>
<path d="M 1345.4 384 C 1345.4 567.2 1055.6 748 881.2 805 C 706.8 862 397 862.6 289.6 714 C 182.2 565.4 177.6 198.8 285 50.2 C 392.4 -98.4 715.4 -119.2 889.8 -62.2 C 1064.2 -5.2 1345.4 200.8 1345.4 384" fill="url(#lg-0.13809371087108047)" opacity="0.4" style="opacity:0.4;animation-play-state:paused" ></path>
<path d="M 1400.2 384 C 1400.2 554.8 1047 763.2 885.2 816.2 C 723.4 869.2 352 879.4 251.8 741.4 C 151.6 603.4 241.4 229.2 341.6 91.2 C 441.8 -46.8 700 -30 861.8 22.2 C 1023.6 74.4 1400.2 213.2 1400.2 384" fill="url(#lg-0.13809371087108047)" opacity="0.4" style="opacity:0.4;animation-play-state:paused" ></path>
<path d="M 1360.2 384 C 1360.2 563.6 1054.6 757.2 884 813 C 713.4 868.8 357.2 887.4 251.6 742.6 C 146 597.8 203.8 212.6 309.4 67.8 C 415 -77 703 -69 873.6 -13.2 C 1044.2 42.6 1360.2 204.4 1360.2 384" fill="url(#lg-0.13809371087108047)" opacity="0.4" style="opacity:0.4;animation-play-state:paused" ></path>
<path d="M 1290.6 384 C 1290.6 553.4 1057.6 799.2 896.2 851.6 C 734.8 904 359 874.2 259.2 737 C 159.4 599.8 211.8 206.6 311.6 69.4 C 411.4 -67.8 725.4 -106.4 886.8 -54 C 1048.2 -1.6 1290.6 214.6 1290.6 384" fill="url(#lg-0.13809371087108047)" opacity="0.4" style="opacity:0.4;animation-play-state:paused" ></path></g></svg>