<svg width="851" height="390" viewBox="0 0 851 390" fill="none" xmlns="http://www.w3.org/2000/svg">
<path d="M182.965 217.154C191.809 240.014 220.084 251.792 248.446 251.641C240.952 240.34 232.435 218.343 229.036 164.497C225.071 143.366 218.533 123.439 201.434 108.138C177.542 86.7592 146.649 78.7674 111.245 81.444C149.906 121.265 166.684 183.552 182.965 217.154Z" fill="#9DF871" fill-opacity="0.8"/>
<path d="M77.9371 115.565C54.9176 77.2464 72.5996 69.6047 83.5861 45.3836C86.4993 57.8219 98.3291 79.9513 140.65 96.2849C171.137 111.69 190.882 125.039 196.938 146.437C202.49 166.051 202.73 195.375 186.886 224.658C158.125 181.916 100.957 153.885 77.9371 115.565Z" fill="#9DF871"/>
<path d="M245.64 253C234.974 253 226.907 250 221.44 244C215.974 237.867 213.24 229.133 213.24 217.8V209.8H234.04V219.4C234.04 228.467 237.84 233 245.44 233C249.174 233 251.974 231.933 253.84 229.8C255.84 227.533 256.84 223.933 256.84 219C256.84 213.133 255.507 208 252.84 203.6C250.174 199.067 245.24 193.667 238.04 187.4C228.974 179.4 222.64 172.2 219.04 165.8C215.44 159.267 213.64 151.933 213.64 143.8C213.64 132.733 216.44 124.2 222.04 118.2C227.64 112.067 235.774 109 246.44 109C256.974 109 264.907 112.067 270.24 118.2C275.707 124.2 278.44 132.867 278.44 144.2V150H257.64V142.8C257.64 138 256.707 134.533 254.84 132.4C252.974 130.133 250.24 129 246.64 129C239.307 129 235.64 133.467 235.64 142.4C235.64 147.467 236.974 152.2 239.64 156.6C242.44 161 247.44 166.333 254.64 172.6C263.84 180.6 270.174 187.867 273.64 194.4C277.107 200.933 278.84 208.6 278.84 217.4C278.84 228.867 275.974 237.667 270.24 243.8C264.64 249.933 256.44 253 245.64 253ZM291.454 111H313.454V168H337.054V111H359.054V251H337.054V188H313.454V251H291.454V111ZM407.239 253C396.439 253 388.172 249.933 382.439 243.8C376.705 237.667 373.839 229 373.839 217.8V144.2C373.839 133 376.705 124.333 382.439 118.2C388.172 112.067 396.439 109 407.239 109C418.039 109 426.305 112.067 432.039 118.2C437.772 124.333 440.639 133 440.639 144.2V217.8C440.639 229 437.772 237.667 432.039 243.8C426.305 249.933 418.039 253 407.239 253ZM407.239 233C414.839 233 418.639 228.4 418.639 219.2V142.8C418.639 133.6 414.839 129 407.239 129C399.639 129 395.839 133.6 395.839 142.8V219.2C395.839 228.4 399.639 233 407.239 233ZM455.517 111H515.517V131H477.517V168H507.717V188H477.517V231H515.517V251H455.517V111ZM528.173 111H586.373V131H550.173V170H578.573V190H550.173V251H528.173V111ZM596.923 111H618.923V231H655.123V251H596.923V111ZM668.295 191.4L641.695 111H665.095L680.095 162.4H680.495L695.495 111H716.895L690.295 191.4V251H668.295V191.4Z" fill="black"/>
<path d="M195.059 243.583C212.474 260.831 245.723 265 264.223 248.5C252.765 241.249 240.694 224.449 215.583 176.695C203.328 159.03 189.216 143.515 167.357 136.54C136.814 126.794 105.352 132.127 74.1347 149.041C125.695 169.582 166.466 219.571 195.059 243.583Z" fill="#51CACC"/>
<path d="M57.6821 193.796C21.011 168.233 34.0252 154.032 34.1521 127.436C41.8947 137.597 61.7363 152.958 107.037 150.567C141.158 152.165 164.634 156.278 178.907 173.332C191.991 188.964 204.196 215.628 201.704 248.829C157.986 221.576 94.3532 219.36 57.6821 193.796Z" fill="#51CACC" fill-opacity="0.8"/>
</svg>
