<?xml version="1.0" encoding="utf-8"?><svg xmlns="http://www.w3.org/2000/svg" xmlns:xlink="http://www.w3.org/1999/xlink" width="1424" height="793" preserveAspectRatio="xMidYMid" viewBox="0 0 1424 793" style="z-index:1;margin-right:-2px;display:block;background-repeat-y:initial;background-repeat-x:initial;background-color:rgb(255, 255, 255);animation-play-state:paused" ><g transform="" style="animation-play-state:paused" ><linearGradient id="lg-0.7268876979926939" x1="0" x2="1" y1="0" y2="0" style="animation-play-state:paused" ><stop stop-color="#ff7f7f" offset="0" style="animation-play-state:paused" ></stop>

  
<stop stop-color="#ffee4b" offset="1" style="animation-play-state:paused" ></stop></linearGradient>
<path d="M 0 0 L 0 712.889 Q 142.4 623.159 284.8 593.236 T 569.6 526.564 T 854.4 461.26 T 1139.2 465.408 T 1424 380.539 L 1424 0 Z" fill="url(#lg-0.7268876979926939)" opacity="0.4" style="opacity:0.4;animation-play-state:paused" ></path>
<path d="M 0 0 L 0 757.796 Q 142.4 627.463 284.8 594.199 T 569.6 627.328 T 854.4 442.912 T 1139.2 417.279 T 1424 336.304 L 1424 0 Z" fill="url(#lg-0.7268876979926939)" opacity="0.4" style="opacity:0.4;animation-play-state:paused" ></path>
<path d="M 0 0 L 0 752.75 Q 142.4 613.525 284.8 582.364 T 569.6 545.025 T 854.4 424.299 T 1139.2 431.939 T 1424 359.916 L 1424 0 Z" fill="url(#lg-0.7268876979926939)" opacity="0.4" style="opacity:0.4;animation-play-state:paused" ></path>
<path d="M 0 0 L 0 678.088 Q 142.4 678.104 284.8 657.732 T 569.6 610.721 T 854.4 520.064 T 1139.2 394.651 T 1424 338.492 L 1424 0 Z" fill="url(#lg-0.7268876979926939)" opacity="0.4" style="opacity:0.4;animation-play-state:paused" ></path>
<path d="M 0 0 L 0 751.729 Q 142.4 673.052 284.8 651.251 T 569.6 619.184 T 854.4 469.278 T 1139.2 414.863 T 1424 365.017 L 1424 0 Z" fill="url(#lg-0.7268876979926939)" opacity="0.4" style="opacity:0.4;animation-play-state:paused" ></path></g></svg>